<svg width="100" height="73" viewBox="0 0 100 73" fill="none" xmlns="http://www.w3.org/2000/svg">
<path d="M26.2891 72.0703C21.8945 72.0703 17.7441 70.8984 13.8379 68.5547C9.93164 66.2109 6.75781 62.8418 4.31641 58.4473C1.97266 54.0527 0.800781 48.877 0.800781 42.9199C0.800781 36.9629 2.26562 31.1523 5.19531 25.4883C6.17188 23.4375 7.92969 20.8008 10.4688 17.5781C13.1055 14.3555 15.5469 11.5723 17.793 9.22852L27.0215 0L33.6133 10.8398C29.0234 13.6719 24.9707 17.1875 21.4551 21.3867C17.9395 25.4883 16.1816 29.248 16.1816 32.666C16.1816 34.4238 16.5723 35.8398 17.3535 36.9141C20.7715 34.4727 24.5801 33.252 28.7793 33.252C31.8066 33.252 34.6875 34.1797 37.4219 36.0352C40.2539 37.793 42.5 40.1367 44.1602 43.0664C45.918 45.8984 46.7969 48.8281 46.7969 51.8555C46.7969 55.2734 45.7715 58.5449 43.7207 61.6699C41.7676 64.7949 39.1797 67.334 35.957 69.2871C32.832 71.1426 29.6094 72.0703 26.2891 72.0703ZM78.877 72.0703C74.4824 72.0703 70.332 70.8984 66.4258 68.5547C62.5195 66.2109 59.3457 62.8418 56.9043 58.4473C54.5605 54.0527 53.3887 48.877 53.3887 42.9199C53.3887 38.7207 53.9258 34.9609 55 31.6406C56.0742 28.2227 57.9297 24.6582 60.5664 20.9473C63.1055 17.4316 65.498 14.502 67.7441 12.1582C69.9902 9.7168 73.8965 5.66406 79.4629 0L86.0547 10.8398C81.4648 13.6719 77.4121 17.1875 73.8965 21.3867C70.3809 25.4883 68.623 29.248 68.623 32.666C68.623 34.4238 69.0137 35.8398 69.7949 36.9141C73.2129 34.4727 77.0215 33.252 81.2207 33.252C84.248 33.252 87.1289 34.1797 89.8633 36.0352C92.6953 37.793 94.9414 40.1367 96.6016 43.0664C98.3594 45.8984 99.2383 48.8281 99.2383 51.8555C99.2383 55.2734 98.2617 58.5449 96.3086 61.6699C94.3555 64.7949 91.7676 67.334 88.5449 69.2871C85.4199 71.1426 82.1973 72.0703 78.877 72.0703Z" fill="#ED1C2F"/>
</svg>
