<svg width="302" height="221" viewBox="0 0 302 221" fill="none" xmlns="http://www.w3.org/2000/svg">
<path d="M78.1964 221C64.7143 221 51.9811 217.407 39.997 210.22C28.0129 203.033 18.2758 192.701 10.7857 179.226C3.59524 165.75 0 149.879 0 131.612C0 113.345 4.49405 95.5271 13.4821 78.1585C16.4782 71.8699 21.871 63.7846 29.6607 53.9024C37.75 44.0203 45.2401 35.4858 52.131 28.2988L80.4435 0L100.667 33.2398C86.5853 41.9241 74.1518 52.7046 63.3661 65.5813C52.5804 78.1585 47.1875 89.6877 47.1875 100.169C47.1875 105.559 48.3859 109.901 50.7827 113.195C61.2688 105.709 72.9534 101.965 85.8363 101.965C95.124 101.965 103.962 104.81 112.351 110.5C121.04 115.89 127.931 123.077 133.024 132.061C138.417 140.745 141.113 149.729 141.113 159.012C141.113 169.493 137.967 179.525 131.676 189.108C125.684 198.69 117.744 206.476 107.857 212.465C98.2698 218.155 88.3829 221 78.1964 221ZM239.533 221C226.051 221 213.317 217.407 201.333 210.22C189.349 203.033 179.612 192.701 172.122 179.226C164.932 165.75 161.336 149.879 161.336 131.612C161.336 118.735 162.984 107.206 166.28 97.0244C169.575 86.5434 175.268 75.6131 183.357 64.2337C191.147 53.4533 198.487 44.4695 205.378 37.2825C212.269 29.7961 224.253 17.3686 241.33 0L261.554 33.2398C247.472 41.9241 235.039 52.7046 224.253 65.5813C213.467 78.1585 208.074 89.6877 208.074 100.169C208.074 105.559 209.273 109.901 211.67 113.195C222.156 105.709 233.84 101.965 246.723 101.965C256.011 101.965 264.849 104.81 273.238 110.5C281.927 115.89 288.817 123.077 293.911 132.061C299.304 140.745 302 149.729 302 159.012C302 169.493 299.004 179.525 293.012 189.108C287.02 198.69 279.08 206.476 269.193 212.465C259.606 218.155 249.719 221 239.533 221Z" fill="#B0B3B2" fill-opacity="0.3"/>
</svg>
